<?xml version="1.0" encoding="UTF-8"?>
<svg width="9px" height="18px" viewBox="0 0 9 18" version="1.1" xmlns="http://www.w3.org/2000/svg" xmlns:xlink="http://www.w3.org/1999/xlink">
    <!-- Generator: Sketch 46.2 (44496) - http://www.bohemiancoding.com/sketch -->
    <title>facebook</title>
    <desc>Created with Sketch.</desc>
    <defs>
        <polygon id="path-1" points="4.06455429 17.4937371 0 17.4937371 0 -0.000205714286 4.06455429 -0.000205714286 8.12910857 -0.000205714286 8.12910857 17.4937371 4.06455429 17.4937371"></polygon>
    </defs>
    <g id="elements" stroke="none" stroke-width="1" fill="none" fill-rule="evenodd">
        <g id="elements_animations_hovers" transform="translate(-426.000000, -751.000000)">
            <g id="bt_social" transform="translate(410.000000, 740.000000)">
                <g id="facebook" transform="translate(16.000000, 11.000000)">
                    <mask id="mask-2" fill="white">
                        <use xlink:href="#path-1"></use>
                    </mask>
                    <g id="Clip-2"></g>
                    <path d="M8.12910857,5.66465143 L5.36070857,5.66465143 L5.36070857,3.84922286 C5.36070857,3.16728 5.81276571,3.00785143 6.13059429,3.00785143 L8.08436571,3.00785143 L8.08436571,0.0105942857 L5.39413714,-0.000205714286 C2.40716571,-0.000205714286 1.72779429,2.23539429 1.72779429,3.66613714 L1.72779429,5.66465143 L-0.000205714286,5.66465143 L-0.000205714286,8.75345143 L1.72779429,8.75345143 L1.72779429,17.4937371 L5.36070857,17.4937371 L5.36070857,8.75345143 L7.81230857,8.75345143 L8.12910857,5.66465143 Z" id="Fill-1" fill="#C8102E" mask="url(#mask-2)"></path>
                </g>
            </g>
        </g>
    </g>
</svg>