<?xml version="1.0" encoding="UTF-8"?>
<svg width="19px" height="18px" viewBox="0 0 19 18" version="1.1" xmlns="http://www.w3.org/2000/svg" xmlns:xlink="http://www.w3.org/1999/xlink">
    <!-- Generator: Sketch 46.2 (44496) - http://www.bohemiancoding.com/sketch -->
    <title>linkedin</title>
    <desc>Created with Sketch.</desc>
    <defs></defs>
    <g id="elements" stroke="none" stroke-width="1" fill="none" fill-rule="evenodd">
        <g id="elements_animations_hovers" transform="translate(-361.000000, -750.000000)" fill="#C8102E">
            <g id="bt_social" transform="translate(350.000000, 740.000000)">
                <g id="linkedin" transform="translate(11.000000, 10.000000)">
                    <polygon id="Fill-3" points="0.236347826 17.8150696 4.23156522 17.8150696 4.23156522 5.79498261 0.236347826 5.79498261"></polygon>
                    <path d="M2.23395652,4.1529913 L2.20734783,4.1529913 C0.86673913,4.1529913 -0.000391304348,3.22951304 -0.000391304348,2.07594783 C-0.000391304348,0.89733913 0.894130435,-0.000313043478 2.25978261,-0.000313043478 C3.627,-0.000313043478 4.46752174,0.89733913 4.49569565,2.07594783 C4.49569565,3.22951304 3.627,4.1529913 2.23395652,4.1529913" id="Fill-5"></path>
                    <path d="M18.6381391,17.8150696 L14.6437043,17.8150696 L14.6437043,11.3835913 C14.6437043,9.76828696 14.0645739,8.6655913 12.6198783,8.6655913 C11.5156174,8.6655913 10.8597913,9.40906957 10.5694435,10.1267217 C10.4645739,10.3842 10.4371826,10.7426348 10.4371826,11.1018522 L10.4371826,17.8150696 L6.44274783,17.8150696 C6.44274783,17.8150696 6.4944,6.92193913 6.44274783,5.79498261 L10.4371826,5.79498261 L10.4371826,7.4955913 C10.9685739,6.67698261 11.9186609,5.51089565 14.0395304,5.51089565 C16.6675304,5.51089565 18.6381391,7.22950435 18.6381391,10.9226348 L18.6381391,17.8150696 Z" id="Fill-6"></path>
                </g>
            </g>
        </g>
    </g>
</svg>