<?xml version="1.0" encoding="UTF-8"?>
<svg width="30px" height="30px" viewBox="0 0 30 30" version="1.1" xmlns="http://www.w3.org/2000/svg" xmlns:xlink="http://www.w3.org/1999/xlink">
    <!-- Generator: Sketch 46.2 (44496) - http://www.bohemiancoding.com/sketch -->
    <title>loader copy</title>
    <desc>Created with Sketch.</desc>
    <defs></defs>
    <g id="elements" stroke="none" stroke-width="1" fill="none" fill-rule="evenodd">
        <g id="elements_animations_hovers" transform="translate(-704.000000, -92.000000)" fill="#212721">
            <g id="loader-copy" transform="translate(704.000000, 92.000000)">
                <polygon id="Fill-1" points="11.5714286 -0.00012244898 11.5714286 3.306 11.5714286 9.9182449 18.1836735 9.9182449 18.1836735 3.306 18.1836735 -0.00012244898"></polygon>
                <polygon id="Fill-2" points="11.5714286 19.8366122 11.5714286 26.4488571 11.5714286 29.7549796 18.1836735 29.7549796 18.1836735 26.4488571 18.1836735 19.8366122"></polygon>
                <polygon id="Fill-3" points="11.5714286 18.183551 18.1836735 18.183551 18.1836735 11.5713061 11.5714286 11.5713061"></polygon>
                <polygon id="Fill-4" points="26.4489796 11.5713061 19.8367347 11.5713061 19.8367347 18.183551 26.4489796 18.183551 29.755102 18.183551 29.755102 11.5713061"></polygon>
                <polygon id="Fill-5" points="3.30612245 11.5713061 0 11.5713061 0 18.183551 3.30612245 18.183551 9.91836735 18.183551 9.91836735 11.5713061"></polygon>
            </g>
        </g>
    </g>
</svg>