<?xml version="1.0" encoding="UTF-8"?>
<svg width="20px" height="16px" viewBox="0 0 20 16" version="1.1" xmlns="http://www.w3.org/2000/svg" xmlns:xlink="http://www.w3.org/1999/xlink">
    <!-- Generator: Sketch 46.2 (44496) - http://www.bohemiancoding.com/sketch -->
    <title>twitter</title>
    <desc>Created with Sketch.</desc>
    <defs></defs>
    <g id="elements" stroke="none" stroke-width="1" fill="none" fill-rule="evenodd">
        <g id="elements_animations_hovers" transform="translate(-480.000000, -752.000000)" fill="#C8102E">
            <g id="bt_social" transform="translate(470.000000, 740.000000)">
                <g id="twitter" transform="translate(10.000000, 12.000000)">
                    <path d="M19.2893709,1.95330402 C19.1962371,2.6795589 18.1430735,3.40816564 17.5047782,3.96085313 C18.1346068,13.2436511 7.64671496,19.0329937 -0.000128,14.3297408 C2.14429945,14.3462038 4.5215612,13.7572976 5.79721096,12.5460889 C3.94206249,12.245521 2.62831258,11.4044952 2.11842897,9.75819209 C2.66123864,9.70739188 3.42418256,9.87484443 3.7906026,9.64671385 C2.09349924,9.00230376 0.751526983,8.00276256 0.668741453,5.744505 C1.2731699,5.80894601 1.58737861,6.16407712 2.34138546,6.07893973 C1.24400681,5.37479235 -0.00906507426,2.69978491 1.11465442,0.727043362 C3.10668124,2.93544145 5.59212863,4.64900785 9.47646332,4.96368693 C8.51314079,0.865332826 13.9464116,-1.67373701 16.3899958,1.28490494 C17.3396776,1.08264484 18.141192,0.731276713 18.9544658,0.392608635 C18.6209718,1.3230051 17.9450467,1.91050014 17.2818218,2.51069524 C18.0019618,2.37663912 18.7634946,2.28256466 19.2893709,1.95330402" id="Fill-1"></path>
                </g>
            </g>
        </g>
    </g>
</svg>